<svg xmlns="http://www.w3.org/2000/svg" width="16" height="16">
  <defs/>
  <path fill="#393" d="M3 0v3H0v3h3v3h3V6h3V3H6V0z"/>
  <path fill="#424242" d="M12.64 2.84c.13.24.02.34-.03.6-.12.6 1.4.76 1.4-.21-.01-.83-1.55-1.2-2.2-.85-.64.33-1.87 3.65-1.96 3.93-.35 1.06-2.69.7-2.69.7l-.31.94 2.4-.02c-.15.13-1.42 6.34-1.62 6.54-.02.49-1.05.72-.76.28.36-.53.3-1.3-.57-1.3-1.15 0-1.03 1.75-.14 2.05.27.08 1.73.19 2.12-.48.23-.4 2.34-7.01 2.34-7.01l2.64.02.4-.97h-2.8c-.06.45.64-3.46 1-4.16.1-.33.53-.55.78-.06z"/>
</svg>
